<?xml version="1.0" encoding="UTF-8" standalone="no" ?>
<!DOCTYPE svg PUBLIC "-//W3C//DTD SVG 1.1//EN" "http://www.w3.org/Graphics/SVG/1.1/DTD/svg11.dtd">
<svg xmlns="http://www.w3.org/2000/svg" xmlns:xlink="http://www.w3.org/1999/xlink" version="1.1" width="445" height="445" viewBox="0 0 445 445" xml:space="preserve">
<desc>Created with Fabric.js 1.7.22</desc>
<defs>
</defs>
<g id="icon" style="stroke: none; stroke-width: 1; stroke-dasharray: none; stroke-linecap: butt; stroke-linejoin: miter; stroke-miterlimit: 10; fill: none; fill-rule: nonzero; opacity: 1;" transform="translate(-2.4722222222222285 -2.4722222222222285) scale(4.94 4.94)" >
	<path d="M 72.923 34.026 c -0.014 -0.031 -0.016 -0.065 -0.034 -0.096 c -0.014 -0.023 -0.036 -0.036 -0.051 -0.057 c -2.772 -5.044 -7.064 -9.139 -12.257 -11.663 c -0.013 -0.005 -0.021 -0.016 -0.034 -0.021 c -0.003 -0.001 -0.007 0 -0.01 -0.002 c -3.65 -1.766 -7.741 -2.758 -12.06 -2.758 c -3.257 0 -6.382 0.568 -9.289 1.603 c -0.017 0.005 -0.034 0.002 -0.051 0.008 c -0.012 0.005 -0.02 0.015 -0.032 0.02 c -10.719 3.854 -18.407 14.118 -18.407 26.148 c 0 13.273 9.443 24.741 22.453 27.268 c 1.743 0.338 3.535 0.51 5.325 0.51 c 8.477 0 16.381 -3.798 21.687 -10.419 c 3.929 -4.901 6.092 -11.066 6.092 -17.359 C 76.257 42.441 75.048 37.95 72.923 34.026 z" style="stroke: none; stroke-width: 1; stroke-dasharray: none; stroke-linecap: butt; stroke-linejoin: miter; stroke-miterlimit: 10; fill: rgb(125,221,0); fill-rule: nonzero; opacity: 1;" transform=" matrix(1 0 0 1 0 0) " stroke-linecap="round" />
	<path d="M 72.923 34.026 c -0.014 -0.031 -0.016 -0.065 -0.034 -0.096 c -0.014 -0.023 -0.036 -0.036 -0.051 -0.057 c -2.772 -5.044 -7.064 -9.139 -12.257 -11.663 c -0.013 -0.005 -0.021 -0.016 -0.034 -0.021 c -0.003 -0.001 -0.007 0 -0.01 -0.002 c -3.65 -1.766 -7.741 -2.758 -12.06 -2.758 c -3.257 0 -6.382 0.568 -9.289 1.603 c -0.017 0.005 -0.034 0.002 -0.051 0.008 c -0.012 0.005 -0.02 0.015 -0.032 0.02 c -10.719 3.854 -18.407 14.118 -18.407 26.148 c 0 13.273 9.443 24.741 22.453 27.268 c 1.743 0.338 3.535 0.51 5.325 0.51 c 8.477 0 16.381 -3.798 21.687 -10.419 c 3.929 -4.901 6.092 -11.066 6.092 -17.359 C 76.257 42.441 75.048 37.95 72.923 34.026 z" style="stroke: none; stroke-width: 1; stroke-dasharray: none; stroke-linecap: butt; stroke-linejoin: miter; stroke-miterlimit: 10; fill: rgb(0,156,234); fill-rule: nonzero; opacity: 1;" transform=" matrix(1 0 0 1 0 0) " stroke-linecap="round" />
	<path d="M 89.961 68.803 c -0.153 -0.531 -0.706 -0.833 -1.238 -0.684 l -2.508 0.724 c -0.384 -0.795 -0.935 -1.486 -1.626 -2.037 l 1.261 -2.286 c 0.267 -0.483 0.091 -1.092 -0.393 -1.359 c -0.484 -0.266 -1.092 -0.09 -1.359 0.393 l -1.258 2.279 c -0.835 -0.292 -1.718 -0.391 -2.597 -0.291 l -0.722 -2.5 c -0.154 -0.531 -0.707 -0.835 -1.238 -0.684 c -0.53 0.153 -0.837 0.708 -0.684 1.238 l 0.724 2.508 c -0.795 0.384 -1.486 0.935 -2.037 1.626 l -2.285 -1.261 c -0.485 -0.266 -1.093 -0.091 -1.359 0.393 s -0.091 1.092 0.393 1.359 l 2.278 1.257 c -0.292 0.835 -0.39 1.718 -0.29 2.597 l -2.5 0.722 c -0.53 0.153 -0.837 0.708 -0.684 1.238 c 0.127 0.438 0.526 0.723 0.961 0.723 c 0.092 0 0.185 -0.013 0.277 -0.039 l 2.508 -0.724 c 0.384 0.795 0.935 1.486 1.626 2.037 l -1.261 2.285 c -0.267 0.483 -0.091 1.092 0.393 1.359 c 0.153 0.084 0.319 0.124 0.482 0.124 c 0.353 0 0.694 -0.187 0.877 -0.517 l 1.26 -2.282 c 0.624 0.218 1.274 0.339 1.93 0.339 c 0.221 0 0.443 -0.022 0.664 -0.047 l 0.723 2.503 c 0.127 0.438 0.526 0.723 0.961 0.723 c 0.092 0 0.185 -0.013 0.277 -0.039 c 0.53 -0.153 0.837 -0.708 0.684 -1.238 l -0.724 -2.508 c 0.795 -0.384 1.486 -0.935 2.036 -1.626 l 2.285 1.261 c 0.153 0.084 0.319 0.124 0.482 0.124 c 0.353 0 0.694 -0.187 0.877 -0.517 c 0.267 -0.483 0.091 -1.092 -0.393 -1.359 l -2.278 -1.257 c 0.292 -0.835 0.391 -1.718 0.291 -2.597 l 2.5 -0.722 C 89.807 69.888 90.114 69.333 89.961 68.803 z" style="stroke: none; stroke-width: 1; stroke-dasharray: none; stroke-linecap: butt; stroke-linejoin: miter; stroke-miterlimit: 10; fill: rgb(239,51,0); fill-rule: nonzero; opacity: 1;" transform=" matrix(1 0 0 1 0 0) " stroke-linecap="round" />
	<path d="M 9.097 40.26 c -0.065 0 -0.131 -0.006 -0.198 -0.02 c -0.541 -0.109 -0.892 -0.636 -0.783 -1.178 c 0.269 -1.336 0.608 -2.673 1.008 -3.973 c 0.162 -0.529 0.723 -0.826 1.25 -0.662 c 0.528 0.162 0.824 0.722 0.662 1.25 c -0.38 1.236 -0.703 2.508 -0.958 3.779 C 9.981 39.932 9.564 40.26 9.097 40.26 z M 11.445 32.625 c -0.129 0 -0.261 -0.025 -0.388 -0.079 c -0.509 -0.214 -0.748 -0.801 -0.534 -1.31 c 0.528 -1.254 1.127 -2.497 1.779 -3.694 c 0.263 -0.485 0.87 -0.665 1.356 -0.399 c 0.485 0.264 0.664 0.872 0.399 1.356 c -0.62 1.139 -1.189 2.32 -1.691 3.513 C 12.206 32.395 11.835 32.625 11.445 32.625 z M 15.264 25.61 c -0.194 0 -0.39 -0.056 -0.562 -0.174 c -0.457 -0.311 -0.574 -0.933 -0.263 -1.389 c 0.766 -1.125 1.598 -2.224 2.473 -3.268 c 0.354 -0.423 0.984 -0.48 1.409 -0.124 c 0.423 0.354 0.479 0.985 0.124 1.409 c -0.832 0.993 -1.624 2.039 -2.353 3.108 C 15.898 25.457 15.584 25.61 15.264 25.61 z M 20.395 19.488 c -0.26 0 -0.519 -0.101 -0.715 -0.301 c -0.386 -0.395 -0.379 -1.028 0.016 -1.414 c 0.973 -0.952 2.005 -1.866 3.067 -2.716 c 0.43 -0.345 1.06 -0.276 1.406 0.156 c 0.345 0.431 0.275 1.061 -0.156 1.406 c -1.01 0.809 -1.992 1.678 -2.918 2.584 C 20.9 19.393 20.648 19.488 20.395 19.488 z M 26.628 14.498 c -0.327 0 -0.648 -0.16 -0.839 -0.455 c -0.301 -0.463 -0.169 -1.083 0.293 -1.383 c 1.143 -0.743 2.334 -1.435 3.542 -2.057 c 0.494 -0.253 1.095 -0.061 1.347 0.43 c 0.253 0.491 0.061 1.094 -0.43 1.347 c -1.149 0.592 -2.282 1.25 -3.369 1.957 C 27.004 14.445 26.815 14.498 26.628 14.498 z M 33.722 10.838 c -0.398 0 -0.775 -0.24 -0.931 -0.633 c -0.203 -0.514 0.049 -1.095 0.562 -1.298 c 1.264 -0.5 2.569 -0.941 3.879 -1.312 c 0.528 -0.151 1.084 0.158 1.234 0.689 c 0.151 0.531 -0.158 1.084 -0.689 1.234 c -1.246 0.353 -2.487 0.773 -3.688 1.249 C 33.968 10.815 33.844 10.838 33.722 10.838 z M 41.4 8.662 c -0.476 0 -0.897 -0.34 -0.983 -0.825 c -0.097 -0.544 0.266 -1.063 0.809 -1.16 c 1.336 -0.238 2.704 -0.411 4.064 -0.515 c 0.553 -0.04 1.031 0.37 1.073 0.921 s -0.37 1.031 -0.921 1.073 c -1.294 0.099 -2.595 0.264 -3.866 0.49 C 41.517 8.657 41.458 8.662 41.4 8.662 z" style="stroke: none; stroke-width: 1; stroke-dasharray: none; stroke-linecap: butt; stroke-linejoin: miter; stroke-miterlimit: 10; fill: rgb(137,137,137); fill-rule: nonzero; opacity: 1;" transform=" matrix(1 0 0 1 0 0) " stroke-linecap="round" />
	<path d="M 49.807 88.355 c -0.537 0 -0.98 -0.427 -0.998 -0.968 c -0.019 -0.552 0.414 -1.014 0.967 -1.031 c 1.295 -0.043 2.602 -0.15 3.886 -0.319 c 0.547 -0.074 1.05 0.313 1.122 0.86 c 0.072 0.548 -0.312 1.05 -0.86 1.122 c -1.349 0.178 -2.723 0.291 -4.083 0.335 C 49.829 88.355 49.818 88.355 49.807 88.355 z M 45.81 88.289 c -0.022 0 -0.044 -0.001 -0.066 -0.002 c -1.362 -0.089 -2.732 -0.248 -4.072 -0.472 c -0.545 -0.091 -0.913 -0.606 -0.822 -1.151 c 0.091 -0.544 0.606 -0.916 1.151 -0.821 c 1.274 0.213 2.578 0.363 3.874 0.448 c 0.551 0.036 0.969 0.513 0.933 1.063 C 46.772 87.883 46.333 88.289 45.81 88.289 z M 57.724 87.306 c -0.453 0 -0.864 -0.311 -0.973 -0.771 c -0.126 -0.538 0.207 -1.076 0.744 -1.203 c 1.263 -0.297 2.521 -0.661 3.743 -1.082 c 0.522 -0.181 1.092 0.097 1.271 0.619 c 0.18 0.522 -0.098 1.092 -0.619 1.271 c -1.285 0.442 -2.609 0.826 -3.936 1.139 C 57.878 87.297 57.801 87.306 57.724 87.306 z M 37.929 86.977 c -0.087 0 -0.175 -0.011 -0.263 -0.035 c -1.315 -0.357 -2.626 -0.784 -3.895 -1.27 c -0.516 -0.196 -0.774 -0.774 -0.577 -1.291 c 0.197 -0.517 0.778 -0.771 1.291 -0.576 c 1.208 0.461 2.455 0.868 3.706 1.208 c 0.533 0.145 0.848 0.694 0.703 1.227 C 38.773 86.684 38.37 86.977 37.929 86.977 z M 65.276 84.705 c -0.379 0 -0.74 -0.216 -0.909 -0.582 c -0.231 -0.501 -0.012 -1.095 0.49 -1.326 c 1.174 -0.541 2.336 -1.148 3.454 -1.807 c 0.477 -0.281 1.089 -0.121 1.369 0.355 c 0.279 0.476 0.121 1.089 -0.355 1.369 c -1.176 0.691 -2.397 1.33 -3.632 1.898 C 65.558 84.676 65.416 84.705 65.276 84.705 z M 30.468 84.123 c -0.151 0 -0.304 -0.034 -0.448 -0.106 c -1.214 -0.61 -2.414 -1.29 -3.564 -2.02 c -0.467 -0.296 -0.605 -0.914 -0.31 -1.38 c 0.296 -0.467 0.914 -0.605 1.38 -0.31 c 1.096 0.694 2.237 1.341 3.393 1.922 c 0.493 0.248 0.692 0.85 0.444 1.343 C 31.187 83.922 30.835 84.123 30.468 84.123 z M 23.725 79.846 c -0.216 0 -0.434 -0.069 -0.616 -0.213 c -1.071 -0.84 -2.112 -1.742 -3.096 -2.683 c -0.399 -0.382 -0.413 -1.015 -0.031 -1.414 c 0.383 -0.399 1.015 -0.414 1.414 -0.031 c 0.936 0.896 1.927 1.755 2.946 2.554 c 0.435 0.341 0.511 0.97 0.17 1.404 C 24.316 79.714 24.022 79.846 23.725 79.846 z M 17.957 74.323 c -0.282 0 -0.562 -0.118 -0.76 -0.35 c -0.884 -1.033 -1.728 -2.123 -2.507 -3.24 c -0.316 -0.453 -0.205 -1.076 0.248 -1.393 c 0.454 -0.314 1.078 -0.203 1.393 0.248 c 0.742 1.063 1.544 2.101 2.386 3.084 c 0.359 0.42 0.31 1.051 -0.109 1.41 C 18.418 74.244 18.187 74.323 17.957 74.323 z" style="stroke: none; stroke-width: 1; stroke-dasharray: none; stroke-linecap: butt; stroke-linejoin: miter; stroke-miterlimit: 10; fill: rgb(137,137,137); fill-rule: nonzero; opacity: 1;" transform=" matrix(1 0 0 1 0 0) " stroke-linecap="round" />
	<path d="M 88.262 53.787 c -0.046 0 -0.092 -0.003 -0.139 -0.01 c -0.547 -0.075 -0.929 -0.581 -0.853 -1.128 c 0.177 -1.275 0.293 -2.583 0.344 -3.885 c 0.021 -0.553 0.496 -0.987 1.038 -0.96 c 0.552 0.021 0.981 0.486 0.96 1.038 c -0.054 1.367 -0.175 2.741 -0.361 4.082 C 89.182 53.424 88.753 53.787 88.262 53.787 z M 88.574 45.804 c -0.525 0 -0.966 -0.41 -0.997 -0.94 c -0.077 -1.296 -0.22 -2.601 -0.423 -3.877 c -0.087 -0.545 0.284 -1.058 0.83 -1.145 c 0.545 -0.092 1.058 0.285 1.145 0.83 c 0.214 1.34 0.363 2.71 0.444 4.072 c 0.033 0.551 -0.388 1.025 -0.938 1.058 C 88.614 45.804 88.594 45.804 88.574 45.804 z M 87.314 37.919 c -0.442 0 -0.848 -0.296 -0.966 -0.744 c -0.332 -1.257 -0.73 -2.506 -1.184 -3.713 c -0.193 -0.517 0.068 -1.093 0.585 -1.288 c 0.518 -0.191 1.094 0.068 1.288 0.585 c 0.476 1.269 0.895 2.583 1.244 3.904 c 0.142 0.534 -0.177 1.082 -0.711 1.223 C 87.485 37.908 87.399 37.919 87.314 37.919 z M 84.512 30.442 c -0.369 0 -0.724 -0.205 -0.897 -0.557 c -0.572 -1.16 -1.211 -2.305 -1.898 -3.404 c -0.293 -0.468 -0.15 -1.085 0.317 -1.378 c 0.47 -0.295 1.086 -0.15 1.378 0.317 c 0.723 1.155 1.395 2.359 1.996 3.579 c 0.245 0.496 0.041 1.095 -0.454 1.339 C 84.812 30.409 84.661 30.442 84.512 30.442 z M 80.282 23.67 c -0.299 0 -0.595 -0.133 -0.792 -0.388 c -0.794 -1.026 -1.646 -2.023 -2.534 -2.964 c -0.38 -0.401 -0.361 -1.034 0.04 -1.414 c 0.402 -0.38 1.035 -0.361 1.413 0.041 c 0.934 0.988 1.829 2.035 2.663 3.113 c 0.338 0.437 0.258 1.065 -0.18 1.403 C 80.711 23.601 80.495 23.67 80.282 23.67 z" style="stroke: none; stroke-width: 1; stroke-dasharray: none; stroke-linecap: butt; stroke-linejoin: miter; stroke-miterlimit: 10; fill: rgb(137,137,137); fill-rule: nonzero; opacity: 1;" transform=" matrix(1 0 0 1 0 0) " stroke-linecap="round" />
	<path d="M 18.161 51.921 c -0.153 -0.531 -0.708 -0.837 -1.238 -0.684 l -2.508 0.724 c -0.384 -0.796 -0.935 -1.487 -1.627 -2.037 l 1.261 -2.286 c 0.267 -0.484 0.091 -1.092 -0.393 -1.359 c -0.483 -0.266 -1.092 -0.09 -1.358 0.393 l -1.257 2.279 c -0.835 -0.292 -1.718 -0.391 -2.597 -0.291 l -0.722 -2.5 c -0.153 -0.531 -0.708 -0.836 -1.238 -0.684 C 5.953 45.63 5.647 46.184 5.8 46.715 l 0.724 2.508 c -0.796 0.384 -1.487 0.935 -2.037 1.626 l -2.286 -1.261 c -0.483 -0.266 -1.092 -0.091 -1.358 0.393 c -0.267 0.483 -0.091 1.092 0.393 1.359 l 2.278 1.257 c -0.292 0.835 -0.391 1.718 -0.291 2.597 l -2.5 0.722 c -0.531 0.153 -0.836 0.708 -0.684 1.238 c 0.126 0.438 0.526 0.723 0.96 0.723 c 0.092 0 0.185 -0.013 0.278 -0.039 l 2.508 -0.724 c 0.384 0.796 0.935 1.486 1.627 2.037 l -1.261 2.285 c -0.267 0.483 -0.091 1.092 0.393 1.359 c 0.153 0.084 0.319 0.124 0.482 0.124 c 0.353 0 0.694 -0.187 0.876 -0.517 l 1.259 -2.282 c 0.624 0.218 1.273 0.339 1.93 0.339 c 0.221 0 0.443 -0.022 0.664 -0.047 l 0.723 2.503 c 0.126 0.438 0.526 0.723 0.96 0.723 c 0.092 0 0.185 -0.013 0.278 -0.039 c 0.531 -0.153 0.836 -0.708 0.684 -1.238 l -0.724 -2.508 c 0.796 -0.384 1.487 -0.935 2.037 -1.626 l 2.286 1.261 c 0.153 0.084 0.319 0.124 0.482 0.124 c 0.353 0 0.694 -0.187 0.876 -0.517 c 0.267 -0.484 0.091 -1.093 -0.393 -1.359 l -2.278 -1.256 c 0.292 -0.835 0.391 -1.718 0.291 -2.597 l 2.5 -0.722 C 18.008 53.005 18.314 52.451 18.161 51.921 z" style="stroke: none; stroke-width: 1; stroke-dasharray: none; stroke-linecap: butt; stroke-linejoin: miter; stroke-miterlimit: 10; fill: rgb(239,51,0); fill-rule: nonzero; opacity: 1;" transform=" matrix(1 0 0 1 0 0) " stroke-linecap="round" />
	<path d="M 74.653 8.128 c -0.153 -0.53 -0.705 -0.835 -1.238 -0.684 l -2.502 0.722 c -0.392 -0.81 -0.953 -1.5 -1.63 -2.039 l 1.259 -2.282 c 0.267 -0.483 0.091 -1.092 -0.393 -1.358 c -0.484 -0.268 -1.092 -0.09 -1.359 0.393 l -1.259 2.282 c -0.817 -0.285 -1.7 -0.392 -2.594 -0.292 l -0.723 -2.502 c -0.153 -0.53 -0.706 -0.834 -1.238 -0.684 c -0.53 0.153 -0.837 0.708 -0.684 1.238 l 0.722 2.502 c -0.81 0.392 -1.501 0.953 -2.04 1.63 l -2.28 -1.258 c -0.484 -0.268 -1.092 -0.09 -1.359 0.392 c -0.267 0.484 -0.091 1.092 0.393 1.359 l 2.281 1.259 c -0.285 0.818 -0.392 1.701 -0.292 2.596 l -2.502 0.722 c -0.53 0.153 -0.837 0.708 -0.684 1.238 c 0.127 0.438 0.526 0.723 0.961 0.723 c 0.092 0 0.185 -0.013 0.277 -0.04 l 2.508 -0.724 c 0.384 0.796 0.935 1.487 1.626 2.037 l -1.262 2.286 c -0.267 0.483 -0.091 1.092 0.393 1.358 c 0.153 0.084 0.319 0.125 0.482 0.125 c 0.353 0 0.694 -0.187 0.877 -0.517 l 1.26 -2.282 c 0.624 0.218 1.274 0.339 1.93 0.339 c 0.221 0 0.443 -0.022 0.664 -0.047 l 0.723 2.503 c 0.127 0.438 0.526 0.723 0.961 0.723 c 0.092 0 0.185 -0.013 0.277 -0.04 c 0.53 -0.153 0.837 -0.708 0.684 -1.238 l -0.724 -2.508 c 0.796 -0.384 1.487 -0.936 2.037 -1.627 l 2.286 1.261 c 0.153 0.084 0.319 0.125 0.482 0.125 c 0.353 0 0.694 -0.187 0.877 -0.517 c 0.267 -0.483 0.091 -1.092 -0.393 -1.358 l -2.279 -1.257 c 0.292 -0.835 0.391 -1.718 0.291 -2.597 l 2.5 -0.722 C 74.5 9.213 74.806 8.658 74.653 8.128 z" style="stroke: none; stroke-width: 1; stroke-dasharray: none; stroke-linecap: butt; stroke-linejoin: miter; stroke-miterlimit: 10; fill: rgb(239,51,0); fill-rule: nonzero; opacity: 1;" transform=" matrix(1 0 0 1 0 0) " stroke-linecap="round" />
	<path d="M 69.996 60.709 c -0.747 -0.169 -1.437 -0.636 -1.823 -1.293 c -0.224 -0.382 -0.375 -0.845 -0.534 -1.335 c -0.217 -0.667 -0.44 -1.357 -0.885 -1.999 c -0.22 -0.319 -0.465 -0.58 -0.701 -0.833 c -0.163 -0.173 -0.326 -0.347 -0.469 -0.536 c -0.578 -0.773 -0.765 -1.844 -0.964 -2.977 c -0.243 -1.382 -0.517 -2.947 -1.613 -4.127 c -1.033 -1.109 -2.488 -1.538 -3.659 -1.885 l -3.159 -0.93 c -0.452 -0.133 -0.878 -0.259 -1.202 -0.47 c -0.459 -0.301 -0.818 -0.847 -1.165 -1.375 c -0.852 -1.3 -1.819 -2.773 -2.077 -4.354 c -0.211 -1.286 0.187 -2.92 1.356 -3.556 c 0.781 -0.426 1.85 -0.398 2.794 -0.374 c 1.759 0.045 3.56 0.178 4.57 1.242 c 0.071 0.075 0.14 0.155 0.207 0.234 c 0.227 0.263 0.509 0.591 0.914 0.83 c 0.447 0.262 0.923 0.35 1.372 0.406 c 2.848 0.351 5.765 -0.161 8.328 -1.438 c 1.679 3.39 2.627 7.204 2.627 11.237 C 73.913 52.049 72.555 56.668 69.996 60.709 z" style="stroke: none; stroke-width: 1; stroke-dasharray: none; stroke-linecap: butt; stroke-linejoin: miter; stroke-miterlimit: 10; fill: rgb(255,255,255); fill-rule: nonzero; opacity: 1;" transform=" matrix(1 0 0 1 0 0) " stroke-linecap="round" />
	<path d="M 67.72 30.58 c -0.194 0.031 -0.426 0.048 -0.714 0.028 c -1.895 -0.134 -3.768 -0.7 -5.42 -1.64 l -0.088 -0.05 c -0.521 -0.298 -1.175 -0.674 -1.973 -0.615 c -0.805 0.053 -1.388 0.507 -1.858 0.871 c -0.172 0.134 -0.345 0.272 -0.531 0.376 c -0.58 0.323 -1.396 0.28 -2.327 0.195 c -0.508 -0.046 -1.033 -0.093 -1.441 -0.269 c -0.307 -0.132 -0.544 -0.362 -0.59 -0.569 c -0.065 -0.298 0.249 -0.736 0.673 -0.938 c 0.534 -0.255 1.219 -0.287 1.944 -0.321 l 0.185 -0.009 c 1.148 -0.056 2.37 -0.173 3.535 -0.652 c 1.039 -0.427 1.375 -1.334 1.572 -2.106 C 63.361 26.351 65.74 28.289 67.72 30.58 z" style="stroke: none; stroke-width: 1; stroke-dasharray: none; stroke-linecap: butt; stroke-linejoin: miter; stroke-miterlimit: 10; fill: rgb(255,255,255); fill-rule: nonzero; opacity: 1;" transform=" matrix(1 0 0 1 0 0) " stroke-linecap="round" />
	<path d="M 39.08 23.579 c 0.451 1.045 1.128 2.175 2.447 2.814 c 0.687 0.333 1.412 0.429 2.051 0.515 c 0.278 0.037 0.556 0.073 0.828 0.131 c 0.556 0.12 1.149 0.44 1.208 0.821 c 0.042 0.272 -0.197 0.649 -0.57 0.898 c -0.373 0.249 -0.851 0.407 -1.358 0.575 c -0.164 0.054 -0.327 0.108 -0.489 0.166 c -1.941 0.689 -3.301 1.804 -3.933 3.225 c -0.113 0.255 -0.203 0.522 -0.29 0.789 c -0.122 0.374 -0.228 0.696 -0.399 0.917 c -0.243 0.314 -0.724 0.542 -1.469 0.695 c -0.56 0.115 -1.14 0.184 -1.755 0.257 c -1.473 0.175 -2.996 0.356 -4.354 1.207 c -0.296 0.186 -0.711 0.494 -0.897 1.021 c -0.175 0.494 -0.071 0.956 -0.008 1.231 l 0.978 4.32 c -0.368 -0.393 -0.789 -0.728 -1.187 -1.043 c -0.437 -0.347 -0.849 -0.674 -1.145 -1.035 c -0.492 -0.599 -0.773 -1.43 -1.071 -2.309 c -0.376 -1.113 -0.801 -2.348 -1.755 -3.229 C 28.71 30.136 33.389 25.859 39.08 23.579 z" style="stroke: none; stroke-width: 1; stroke-dasharray: none; stroke-linecap: butt; stroke-linejoin: miter; stroke-miterlimit: 10; fill: rgb(255,255,255); fill-rule: nonzero; opacity: 1;" transform=" matrix(1 0 0 1 0 0) " stroke-linecap="round" />
	<path d="M 35.751 51.957 c -0.356 -0.048 -0.72 -0.065 -1.083 -0.081 c -0.584 -0.026 -1.137 -0.05 -1.568 -0.24 c -0.589 -0.258 -1.072 -0.914 -1.262 -1.71 c -0.217 -0.911 -0.078 -1.909 0.068 -2.677 l 0.035 -0.183 c 0.126 -0.645 0.268 -1.376 0.099 -2.151 c -0.016 -0.073 -0.034 -0.144 -0.054 -0.214 c 0.183 0.043 0.377 0.034 0.557 -0.03 c 0.528 -0.188 1.087 -0.381 1.554 -0.371 c 0.349 0.008 0.673 0.156 0.771 0.354 c 0.041 0.085 0.068 0.18 0.099 0.273 c 0.121 0.372 0.303 0.934 0.869 1.281 c 0.5 0.307 1.025 0.27 1.373 0.244 c 1.294 -0.094 2.597 -0.053 3.878 0.125 c 0.628 0.087 1.503 0.261 1.847 0.763 c 0.173 0.254 0.263 0.654 0.358 1.076 c 0.165 0.734 0.371 1.645 1.162 2.262 c 0.543 0.423 1.169 0.54 1.672 0.635 c 0.316 0.06 0.613 0.116 0.795 0.226 c 0.464 0.282 0.516 1.178 0.33 1.877 c -0.292 1.092 -0.932 2.084 -1.609 3.134 c -0.402 0.624 -0.817 1.268 -1.171 1.955 c -0.206 0.401 -0.389 0.814 -0.572 1.227 c -0.307 0.694 -0.596 1.35 -0.992 1.913 c -0.281 0.4 -0.628 0.773 -0.996 1.167 c -0.312 0.335 -0.623 0.671 -0.906 1.029 c -0.679 0.86 -1.072 1.743 -1.164 2.596 c -0.435 0.022 -0.959 -0.171 -1.346 -0.522 c -0.539 -0.488 -0.928 -1.251 -1.186 -2.331 c -0.561 -2.341 -0.264 -4.919 0.816 -7.071 l 0.059 -0.117 c 0.241 -0.473 0.54 -1.062 0.513 -1.773 C 38.64 53.06 37.13 52.145 35.751 51.957 z" style="stroke: none; stroke-width: 1; stroke-dasharray: none; stroke-linecap: butt; stroke-linejoin: miter; stroke-miterlimit: 10; fill: rgb(255,255,255); fill-rule: nonzero; opacity: 1;" transform=" matrix(1 0 0 1 0 0) " stroke-linecap="round" />
</g>
</svg>