<?xml version="1.0" encoding="iso-8859-1"?>
<!-- Generator: Adobe Illustrator 21.0.0, SVG Export Plug-In . SVG Version: 6.00 Build 0)  -->
<svg xmlns="http://www.w3.org/2000/svg" xmlns:xlink="http://www.w3.org/1999/xlink" version="1.1" id="Capa_1" x="0px" y="0px" viewBox="0 0 512 512" style="enable-background:new 0 0 512 512;" xml:space="preserve" width="512" height="512">
<g>
	<g>
		<g>
			<g>
				<g>
					<g>
						<g>
							<g>
								<g>
									<g>
										<g>
											<g>
												<g>
													<circle style="fill:#ffffff;" cx="256" cy="256" r="256"/>
												</g>
											</g>
										</g>
									</g>
								</g>
							</g>
						</g>
					</g>
				</g>
			</g>
		</g>
	</g>
	<path style="fill:#ffffff;" d="M511.734,267.404L328.976,84.646l-130.305,29.593l31.559,277.548l-35.57,59.501l60.705,60.705   c0.213,0,0.424,0.008,0.636,0.008C393.562,512,505.766,403.495,511.734,267.404z"/>
	<g>
		<path style="fill:#555A66;" d="M370.659,410.713l-72.305-95.016c7.466-9.825,16.67-22.376,25.927-36.111    c19.842-29.439,46.222-72.537,46.222-106.773c0-63.136-51.365-114.501-114.502-114.501s-114.502,51.365-114.502,114.501    c0,34.236,26.379,77.334,46.222,106.773c9.257,13.735,18.461,26.286,25.927,36.111l-72.305,95.016l53.317,40.574L256,370.679    l61.341,80.608L370.659,410.713z M256,125.311c26.193,0,47.502,21.309,47.502,47.501c0,0.72-0.392,18.211-34.492,68.899    c-4.395,6.532-8.812,12.814-13.01,18.617c-4.198-5.803-8.615-12.085-13.01-18.617c-34.1-50.688-34.492-68.18-34.492-68.899    C208.498,146.62,229.807,125.311,256,125.311z"/>
	</g>
	<g>
		<path style="fill:#414952;" d="M298.353,315.697c7.466-9.825,16.67-22.376,25.927-36.111    c19.842-29.439,46.222-72.537,46.222-106.773c0-63.136-51.365-114.501-114.502-114.501c-0.032,0-0.063,0.001-0.095,0.001v67.001    c0.032,0,0.063-0.002,0.095-0.002c26.193,0,47.502,21.309,47.502,47.501c0,0.72-0.392,18.211-34.492,68.899    c-4.395,6.532-8.812,12.814-13.01,18.617c-0.031-0.043,0.031,0.043,0,0l-0.095,110.475l0.095-0.125l61.341,80.608l53.317-40.574    L298.353,315.697z"/>
	</g>
	<g>
		<polygon style="fill:#414952;" points="256,370.679 213.647,315.697 141.341,410.713 194.659,451.287   "/>
	</g>
	<g>
		<g>
			<path style="fill:#414952;" d="M303.502,172.812c0,0.72-0.392,18.211-34.492,68.899c-4.395,6.532-8.812,12.814-13.01,18.617     l42.353,55.368c7.466-9.825,16.67-22.376,25.927-36.111c19.842-29.439,46.222-72.537,46.222-106.773     c0-63.136-51.365-114.501-114.502-114.501c-6.692,0-13.25,0.583-19.631,1.69C236.411,60.024,321.333,107.307,303.502,172.812z"/>
		</g>
	</g>
	<g>
		<g>
			<path style="fill:#333940;" d="M256,58.311c-0.032,0-0.063,0.002-0.095,0.002v14.945c23.906,18.459,59.796,54.74,47.597,99.554     c0,0.72-0.392,18.211-34.492,68.899c-4.395,6.532-8.812,12.814-13.01,18.617l42.353,55.368     c7.466-9.825,16.67-22.376,25.927-36.111c19.842-29.439,46.222-72.537,46.222-106.773C370.502,109.676,319.137,58.311,256,58.311     z"/>
		</g>
	</g>
</g>















</svg>
