<?xml version="1.0" encoding="UTF-8" standalone="no" ?>
<!DOCTYPE svg PUBLIC "-//W3C//DTD SVG 1.1//EN" "http://www.w3.org/Graphics/SVG/1.1/DTD/svg11.dtd">
<svg xmlns="http://www.w3.org/2000/svg" xmlns:xlink="http://www.w3.org/1999/xlink" version="1.1" width="445" height="445" viewBox="0 0 445 445" xml:space="preserve">
<desc>Created with Fabric.js 1.7.22</desc>
<defs>
</defs>
<g id="icon" style="stroke: none; stroke-width: 1; stroke-dasharray: none; stroke-linecap: butt; stroke-linejoin: miter; stroke-miterlimit: 10; fill: none; fill-rule: nonzero; opacity: 1;" transform="translate(-2.4722222222222285 -2.4722222222222285) scale(4.94 4.94)" >
	<path d="M 7.486 13.502 c 9.982 -9.982 26.165 -9.982 36.147 0 L 45 14.869 l 0 0 c 6.895 22.882 6.259 47.092 0 72.294 L 26.927 69.089 c 0 0 0 0 0 0 l -19.44 -19.44 C -2.495 39.667 -2.495 23.484 7.486 13.502 z" style="stroke: none; stroke-width: 1; stroke-dasharray: none; stroke-linecap: butt; stroke-linejoin: miter; stroke-miterlimit: 10; fill: rgb(214,73,62); fill-rule: nonzero; opacity: 1;" transform=" matrix(1 0 0 1 0 0) " stroke-linecap="round" />
	<path d="M 82.514 13.502 c -9.982 -9.982 -26.165 -9.982 -36.147 0 L 45 14.869 l 0 0 v 72.294 l 18.073 -18.073 c 0 0 0 0 0 0 l 19.44 -19.44 C 92.495 39.667 92.495 23.484 82.514 13.502 z" style="stroke: none; stroke-width: 1; stroke-dasharray: none; stroke-linecap: butt; stroke-linejoin: miter; stroke-miterlimit: 10; fill: rgb(215,90,74); fill-rule: nonzero; opacity: 1;" transform=" matrix(1 0 0 1 0 0) " stroke-linecap="round" />
	<polygon points="60.7,41.96 53.27,54.73 45,38.91 45,51.85 52.99,67.14 64.15,47.96 90,47.96 90,41.96 " style="stroke: none; stroke-width: 1; stroke-dasharray: none; stroke-linecap: butt; stroke-linejoin: miter; stroke-miterlimit: 10; fill: rgb(54,63,68); fill-rule: nonzero; opacity: 1;" transform="  matrix(1 0 0 1 0 0) "/>
	<polygon points="45,38.91 39.58,28.55 26.48,42.99 0,42.99 0,48.99 29.14,48.99 38.25,38.95 45,51.85 " style="stroke: none; stroke-width: 1; stroke-dasharray: none; stroke-linecap: butt; stroke-linejoin: miter; stroke-miterlimit: 10; fill: rgb(43,50,55); fill-rule: nonzero; opacity: 1;" transform="  matrix(1 0 0 1 0 0) "/>
</g>
</svg>